<svg width="38" height="35" viewBox="0 0 38 35" fill="none" xmlns="http://www.w3.org/2000/svg">
<path d="M7.67871 0.5L7.93457 0.512695C9.14259 0.635554 10.0936 1.6189 10.1709 2.83984H27.8291C27.9118 1.53389 28.9945 0.500072 30.3213 0.5H35C36.3807 0.5 37.5 1.61929 37.5 3V32.0156C37.4913 33.389 36.3753 34.5 35 34.5H2.98438C1.61103 34.4913 0.5 33.3753 0.5 32V3C0.5 2.13678 0.938055 1.3762 1.60156 0.927734C2.00083 0.657997 2.48293 0.5 3 0.5H7.67871ZM31.2266 3.5C31.7231 3.95663 32.0352 4.61124 32.0352 5.33984V30.2451C32.0352 30.7028 31.9118 31.1313 31.6973 31.5H34.5V3.5H31.2266ZM3.5 31.5H6.30176C6.08735 31.1313 5.96387 30.7027 5.96387 30.2451V5.33984C5.96387 4.61115 6.27678 3.95664 6.77344 3.5H3.5V31.5ZM29.0352 29.1885C28.8134 29.2733 28.5729 29.3203 28.3213 29.3203H9.67871C9.42678 29.3203 9.18584 29.2735 8.96387 29.1885V29.7451H29.0352V29.1885ZM9.67871 27.3203H28.3213V21.1318H27.1787V21.6416C27.1786 23.5745 25.6117 25.1416 23.6787 25.1416H15.5361C13.6032 25.1416 12.0362 23.5745 12.0361 21.6416V21.1318H9.67871V27.3203ZM15.5361 11.2734C14.7077 11.2734 14.0362 11.9451 14.0361 12.7734V21.6416C14.0362 22.47 14.7077 23.1416 15.5361 23.1416H23.6787C24.5071 23.1416 25.1786 22.47 25.1787 21.6416V12.7734C25.1786 11.9451 24.5071 11.2734 23.6787 11.2734H15.5361ZM27.1787 19.1318H28.3213C28.5728 19.1318 28.8135 19.1789 29.0352 19.2637V15.2832H27.1787V19.1318ZM8.96387 19.2637C9.18577 19.1787 9.42687 19.1318 9.67871 19.1318H12.0361V15.2832H8.96387V19.2637ZM10.1787 13.2832H12.0361V12.7734C12.0362 10.8405 13.6032 9.27344 15.5361 9.27344H23.6787C25.6117 9.27344 27.1786 10.8405 27.1787 12.7734V13.2832H27.8213V5.83984H10.1787V13.2832Z" fill="white" stroke="white"/>
<rect x="7.46411" y="4.3396" width="23.0714" height="26.9057" fill="#AA572A"/>
<mask id="mask0_8_1641" style="mask-type:alpha" maskUnits="userSpaceOnUse" x="2" y="2" width="34" height="31">
<path fill-rule="evenodd" clip-rule="evenodd" d="M2 2H8.67857V14.283H29.3214V2H36V33H2V2ZM29.3214 20.1321H8.67857V28.3208H29.3214V20.1321Z" fill="#FFC800"/>
</mask>
<g mask="url(#mask0_8_1641)">
<path fill-rule="evenodd" clip-rule="evenodd" d="M3 2H7.67857C8.23086 2 8.67857 2.44772 8.67857 3V14.283H29.3214V3C29.3214 2.44772 29.7691 2 30.3214 2H35C35.5523 2 36 2.44772 36 3V32C36 32.5523 35.5523 33 35 33H3C2.44772 33 2 32.5523 2 32V3C2 2.44772 2.44772 2 3 2ZM29.3216 20.1321H8.67871V28.3208H29.3216V20.1321Z" fill="#FFC800"/>
</g>
<rect x="13.5359" y="10.7736" width="12.1429" height="12.8679" rx="2" fill="#FFC800"/>
<ellipse cx="19.607" cy="16.0377" rx="3.03571" ry="2.92453" fill="#CD7900"/>
<path d="M18.6949 16.3123C19.0485 15.5256 20.1655 15.5256 20.5191 16.3123L22.128 19.8919C22.4254 20.5536 21.9414 21.3019 21.2159 21.3019H17.998C17.2725 21.3019 16.7885 20.5536 17.0859 19.8919L18.6949 16.3123Z" fill="#CD7900"/>
</svg>
